name Walk3.mot
datacolumns 19
datarows 30
range 1.94000000 2.08500000
endheader

                time	   L_ground_force_vx	   L_ground_force_vy	   L_ground_force_vz	   L_ground_force_px	   L_ground_force_py	   L_ground_force_pz	   R_ground_force_vx	   R_ground_force_vy	   R_ground_force_vz	   R_ground_force_px	   R_ground_force_py	   R_ground_force_pz	   L_ground_torque_x	   L_ground_torque_y	   L_ground_torque_z	   R_ground_torque_x	   R_ground_torque_y	   R_ground_torque_z	
          1.94000000	        -20.73153889	        147.11488239	        -12.61699939	         -0.07562895	          0.00000000	         -0.00241869	          0.00000000	         -0.00000000	         -0.00000000	         -0.00000000	          0.00000000	         -0.00000000	          0.00000000	          0.27388432	          0.00000000	          0.00000000	          0.00000000	          0.00000000	
          1.94500000	        -31.08144900	        206.84065090	        -18.15385195	         -0.16519400	          0.00000000	         -0.00841372	          0.00000000	         -0.00000000	         -0.00000000	         -0.00000000	          0.00000000	         -0.00000000	          0.00000000	          0.38758139	          0.00000000	          0.00000000	         -0.00000000	          0.00000000	
          1.95000000	        -41.96812332	        272.38303620	        -24.08192021	         -0.24439555	          0.00000000	         -0.01356887	          0.00000000	         -0.00000000	         -0.00000000	         -0.00000000	          0.00000000	         -0.00000000	          0.00000000	          0.52145825	          0.00000000	          0.00000000	         -0.00000000	          0.00000000	
          1.95500000	        -53.06331380	        340.34094929	        -30.06989081	         -0.31054621	          0.00000000	         -0.01775663	          0.00000000	         -0.00000000	         -0.00000000	         -0.00000000	          0.00000000	         -0.00000000	          0.00000000	          0.67097552	          0.00000000	          0.00000000	         -0.00000000	          0.00000000	
          1.96000000	        -64.21872652	        407.08037609	        -35.63959444	         -0.36295146	          0.00000000	         -0.02100374	          0.00000000	         -0.00000000	         -0.00000000	         -0.00000000	          0.00000000	         -0.00000000	          0.00000000	          0.83034290	          0.00000000	          0.00000000	         -0.00000000	          0.00000000	
          1.96500000	        -75.29952015	        469.53973408	        -40.20995391	         -0.40225316	          0.00000000	         -0.02342786	          0.00000000	         -0.00000000	         -0.00000000	         -0.00000000	          0.00000000	         -0.00000000	          0.00000000	          0.99118856	          0.00000000	          0.00000000	         -0.00000000	          0.00000000	
          1.97000000	        -85.97010682	        525.39723868	        -43.27934623	         -0.42989924	          0.00000000	         -0.02518520	          0.00000000	         -0.00000000	         -0.00000000	         -0.00000000	          0.00000000	         -0.00000000	          0.00000000	          1.13980567	          0.00000000	          0.00000000	         -0.00000000	          0.00000000	
          1.97500000	        -95.65760000	        573.13438367	        -44.53323689	         -0.44773671	          0.00000000	         -0.02643751	          0.00000000	         -0.00000000	         -0.00000000	         -0.00000000	          0.00000000	         -0.00000000	          0.00000000	          1.25710968	          0.00000000	          0.00000000	         -0.00000000	          0.00000000	
          1.98000000	       -103.76455707	        612.17683716	        -43.81208166	         -0.45771491	          0.00000000	         -0.02733620	          0.00000000	         -0.00000000	         -0.00000000	         -0.00000000	          0.00000000	         -0.00000000	          0.00000000	          1.32307480	          0.00000000	          0.00000000	         -0.00000000	          0.00000000	
          1.98500000	       -110.02493848	        642.80903866	        -41.05667604	         -0.46168231	          0.00000000	         -0.02801394	          0.00000000	         -0.00000000	         -0.00000000	         -0.00000000	          0.00000000	         -0.00000000	          0.00000000	          1.32331878	          0.00000000	          0.00000000	         -0.00000000	          0.00000000	
          1.99000000	       -114.70043904	        665.91035712	        -36.30474061	         -0.46126643	          0.00000000	         -0.02858068	          0.00000000	         -0.00000000	         -0.00000000	          0.00000000	          0.00000000	          0.00000000	          0.00000000	          1.25293662	          0.00000000	          0.00000000	         -0.00000000	          0.00000000	
          1.99500000	       -118.42908593	        682.75928529	        -29.71690196	         -0.45782274	          0.00000000	         -0.02912048	          0.00000000	         -0.00000000	          0.00000000	          0.00000000	          0.00000000	          0.00000000	          0.00000000	          1.11759601	          0.00000000	          0.00000000	         -0.00000000	          0.00000000	
          2.00000000	       -121.89077666	        694.91610556	        -21.58412392	         -0.45243213	          0.00000000	         -0.02968960	          0.00000000	          0.00000000	          0.00000000	          0.00000000	          0.00000000	          0.00000000	          0.00000000	          0.93336831	          0.00000000	          0.00000000	         -0.00000000	          0.00000000	
          2.00500000	       -125.56403430	        704.06649284	        -12.31386360	         -0.44592652	          0.00000000	         -0.03031793	         -0.00000000	          0.00000000	          0.00000000	          0.00000000	          0.00000000	          0.00000000	          0.00000000	          0.72519857	          0.00000000	          0.00000000	         -0.00000000	          0.00000000	
          2.01000000	       -129.66823254	        711.79738044	         -2.41435433	         -0.43892988	          0.00000000	         -0.03101002	         -0.00000000	          0.00000000	          0.00000000	          0.00000000	          0.00000000	          0.00000000	          0.00000000	          0.52575467	          0.00000000	          0.00000000	         -0.00000000	          0.00000000	
          2.01500000	       -134.20858792	        719.33895734	          7.51964347	         -0.43190649	          0.00000000	         -0.03174865	         -0.00000000	          0.00000000	          0.00000000	          0.00000000	          0.00000000	          0.00000000	          0.00000000	          0.37325876	          0.00000000	          0.00000000	          0.00000000	          0.00000000	
          2.02000000	       -139.00835195	        727.41148996	         16.85769362	         -0.42519898	          0.00000000	         -0.03250084	         -0.00000000	          0.00000000	          0.00000000	          0.00000000	          0.00000000	          0.00000000	          0.00000000	          0.30385487	          0.00000000	          0.00000000	          0.00000000	          0.00000000	
          2.02500000	       -143.73435309	        736.37432010	         25.06071566	         -0.41904201	          0.00000000	         -0.03322946	         -0.00000000	          0.00000000	          0.00000000	          0.00000000	          0.00000000	          0.00000000	          0.00000000	          0.33982282	          0.00000000	          0.00000000	          0.00000000	          0.00000000	
          2.03000000	       -148.01754801	        746.51977455	         31.82031954	         -0.41357466	          0.00000000	         -0.03390476	         -0.00000000	          0.00000000	          0.00000000	          0.00000000	          0.00000000	          0.00000000	          0.00000000	          0.48156234	          0.00000000	          0.00000000	          0.00000000	          0.00000000	
          2.03500000	       -151.61668734	        758.15861130	         37.07924038	         -0.40885745	          0.00000000	         -0.03450732	         -0.00000000	          0.00000000	          0.00000000	          0.00000000	          0.00000000	          0.00000000	          0.00000000	          0.71024652	          0.00000000	          0.00000000	          0.00000000	          0.00000000	
          2.04000000	       -154.45113944	        771.49879066	         40.95254602	         -0.40488811	          0.00000000	         -0.03502867	         -0.00000000	          0.00000000	          0.00000000	          0.00000000	          0.00000000	          0.00000000	          0.00000000	          0.99828861	          0.00000000	          0.00000000	          0.00000000	          0.00000000	
          2.04500000	       -156.52376563	        786.53191815	         43.64345751	         -0.40162209	          0.00000000	         -0.03547054	         -0.00000000	          0.00000001	          0.00000000	          0.00000000	          0.00000000	          0.00000000	          0.00000000	          1.31935949	          0.00000000	          0.00000000	          0.00000000	          0.00000000	
          2.05000000	       -157.85383382	        803.00745280	         45.37628318	         -0.39899177	          0.00000000	         -0.03584078	         -0.00000000	          0.00000001	          0.00000000	          0.00000000	          0.00000000	          0.00000000	          0.00000000	          1.65402081	          0.00000000	          0.00000000	          0.00000000	          0.00000000	
          2.05500000	       -158.45137074	        820.47642973	         46.35014233	         -0.39691930	          0.00000000	         -0.03615013	         -0.00000000	          0.00000001	          0.00000000	          0.00000000	          0.00000000	          0.00000000	          0.00000000	          1.98994772	          0.00000000	          0.00000000	          0.00000000	          0.00000000	
          2.06000000	       -158.32305352	        838.39837698	         46.72627135	         -0.39532393	          0.00000000	         -0.03640995	         -0.00000000	          0.00000000	          0.00000000	         -0.00000000	          0.00000000	         -0.00000000	          0.00000000	          2.31830869	          0.00000000	          0.00000000	          0.00000000	          0.00000000	
          2.06500000	       -157.49117328	        856.25456266	         46.64367928	         -0.39412572	          0.00000000	         -0.03663013	         -0.00000000	          0.00000000	          0.00000000	         -0.00000000	          0.00000000	         -0.00000000	          0.00000000	          2.63081799	          0.00000000	          0.00000000	          0.00000000	          0.00000000	
          2.07000000	       -156.00358924	        873.60909649	         46.23421520	         -0.39324947	          0.00000000	         -0.03681979	         -0.00000000	         -0.00000000	         -0.00000000	         -0.00000000	          0.00000000	         -0.00000000	          0.00000000	          2.91905218	          0.00000000	          0.00000000	          0.00000000	          0.00000000	
          2.07500000	       -153.92551279	        890.11564179	         45.62102160	         -0.39262692	          0.00000000	         -0.03698720	          0.00000000	         -0.00000001	         -0.00000000	         -0.00000000	          0.00000000	         -0.00000000	          0.00000000	          3.17588064	          0.00000000	          0.00000000	          0.00000000	          0.00000000	
          2.08000000	       -151.32549527	        905.50480212	         44.91014120	         -0.39219751	          0.00000000	         -0.03713906	          0.00000000	         -0.00000002	         -0.00000000	         -0.00000000	          0.00000000	         -0.00000000	          0.00000000	          3.39738467	          0.00000000	          0.00000000	          0.00000000	          0.00000000	
          2.08500000	       -148.26654489	        919.58016666	         44.18546783	         -0.39190943	          0.00000000	         -0.03728020	          0.00000000	         -0.00000003	         -0.00000000	         -0.00000000	          0.00000000	         -0.00000000	          0.00000000	          3.58329257	          0.00000000	          0.00000000	         -0.00000000	          0.00000000	
